<svg xmlns="http://www.w3.org/2000/svg" viewBox="0 0 484.65 492.61"><rect x="157.92" y="82.35" width="20.6" height="100.28" rx="10.3" style="fill:#f7941d"/><rect x="157.92" y="194.43" width="20.6" height="20.6" rx="10.3" style="fill:#f7941d"/><path d="M288.54,276.75A147.8,147.8,0,0,1,176.83,324C98.24,322.28,34.2,258.69,32,180.11,29.58,96.43,97,27.6,180.12,27.6c81.72,0,148.21,66.49,148.21,148.21,0,2.81-.08,5.59-.23,8.36a6,6,0,0,0,6.17,6.29c3.37-.1,6.76-.16,10.14-.17h.09a3.45,3.45,0,0,0,3.45-3.23q.38-5.58.38-11.25c0-93.19-76.17-168.92-169.52-168.21C87.31,8.3,12.61,83,11.91,174.5,11.19,267.85,86.92,344,180.12,344a167.7,167.7,0,0,0,120.17-50.64l-2.5-13.93A5.39,5.39,0,0,0,288.54,276.75Z" transform="translate(-11.9 -7.6)" style="fill:#ed1c24"/><path d="M339,222.73q-8.27.06-16.44.48a1.62,1.62,0,0,0-1.16,2.64l11.18,13.61A2,2,0,0,0,336,239q2.72-6.67,4.86-13.65A2,2,0,0,0,339,222.73Z" transform="translate(-11.9 -7.6)" style="fill:#ed1c24"/><path d="M195.67,249.62h0a2.94,2.94,0,0,0-2.39-1.62h-113A11.6,11.6,0,0,1,70,242a11,11,0,0,1,.22-10.77L170.44,57.56a11.18,11.18,0,0,1,19.35,0l77.08,133.51A10.13,10.13,0,0,0,277.33,196l.17,0a6.84,6.84,0,0,0,4.8-10.17L203.64,49.56a27.17,27.17,0,0,0-47,0L56.31,223.25a26.89,26.89,0,0,0,.13,27.38,27.78,27.78,0,0,0,24,13.37h122.4a1.26,1.26,0,0,0,1-2.07,65.75,65.75,0,0,1-4-5.35l-2.05-3.09h0v0" transform="translate(-11.9 -7.6)" style="fill:#f7941d"/><path d="M288.79,282.68l-20.54,20.54a6,6,0,0,0,0,8.48l29.51,29.51a6,6,0,0,0,10.15-5.3l-9-50.05A6,6,0,0,0,288.79,282.68Z" transform="translate(-11.9 -7.6)" style="fill:#ed1c24"/><path d="M377.26,355.75,369.93,397a27.09,27.09,0,0,0,7.52,23.93l62.9,62.9a27.7,27.7,0,0,0,39.16,0h0a27.68,27.68,0,0,0,0-39.15l-92.1-92.1A6,6,0,0,0,377.26,355.75Z" transform="translate(-11.9 -7.6)" style="fill:#ed1c24"/><path d="M344.46,500.21,387,260.85c40.57,0,53.36,4.45,55.21,22.61,0,0,27.21-10.15,40.94-30.76-53.56-24.82-107.38-25.94-107.38-25.94L344.39,265h.07l-31.4-38.25s-53.82,1.12-107.37,25.94c13.71,20.61,40.94,30.75,40.94,30.75,1.86-18.16,14.64-22.6,54.93-22.63l42.9,239.39" transform="translate(-11.9 -7.6)" style="fill:#e72629"/><path d="M344.44,215.72c43.3-.33,92.86,6.7,143.59,28.81,6.78-12.21,8.52-17.6,8.52-17.6a416.46,416.46,0,0,0-152.11-29.64,416.37,416.37,0,0,0-152.1,29.64,146.69,146.69,0,0,0,8.52,17.6c50.72-22.11,100.28-29.14,143.58-28.81h0" transform="translate(-11.9 -7.6)" style="fill:#e72629"/></svg>